<svg xmlns="http://www.w3.org/2000/svg" xmlns:xlink="http://www.w3.org/1999/xlink" width="600" zoomAndPan="magnify" viewBox="0 0 450 449.999984" height="600" preserveAspectRatio="xMidYMid meet" version="1.0"><defs><g/><clipPath id="42a5e99acb"><rect x="0" width="389" y="0" height="450"/></clipPath></defs><g transform="matrix(1, 0, 0, 1, 36, 0)"><g clip-path="url(#42a5e99acb)"><g fill="#8c52ff" fill-opacity="1"><g transform="translate(18.458156, 385.672916)"><g><path d="M 287.046875 -138.8125 L 356.453125 -69.40625 L 287.046875 0 L 8.03125 0 L 8.03125 -97.734375 L 98.671875 -191.6875 L 51.46875 -191.6875 L -17.9375 -261.078125 L 51.46875 -330.484375 L 330.484375 -330.484375 L 330.484375 -231.34375 L 240.3125 -138.8125 Z M 14.15625 -95.375 L 14.15625 -8.03125 L 322.9375 -323.40625 L 236.53125 -323.40625 Z M 233.703125 -323.40625 L 55.703125 -323.40625 L 117.5625 -261.5625 L 173.734375 -261.5625 Z M -8.96875 -261.078125 L 53.34375 -199.234375 L 115.203125 -261.078125 L 53.34375 -322.9375 Z M 16.53125 -7.078125 L 102.921875 -7.078125 L 324.34375 -234.171875 L 324.34375 -321.515625 Z M 55.703125 -197.828125 L 111.890625 -197.828125 L 171.859375 -259.671875 L 117.5625 -259.671875 Z M 284.21875 -131.71875 L 227.09375 -131.71875 L 167.609375 -70.8125 L 346.0625 -70.8125 Z M 284.21875 -7.078125 L 346.0625 -67.984375 L 165.25 -67.984375 L 105.75 -7.078125 Z M 284.21875 -7.078125 "/></g></g></g></g></g></svg>